# xmcd
#
# Track frame offsets:
#	150
#	27800
#	50386
#	74119
#	100823
#	133940
#	153464
#	180052
#	195004
#	240358
#	260127
#	288559
#
# Disc length: 4096 seconds
#
# Revision: 1
# Processed by: cddbd v1.5.1PL0 Copyright (c) Steve Scherf et al.
# Submitted via: audiograbber 1.83.01
#
DISCID=a20ffe0c
DTITLE=Dennis Locorriere - live in liverpool disc 2
DYEAR=1900
DGENRE=pop
TTITLE0=don't let the sun catch you crying
TTITLE1=the millionaire
TTITLE2=i can't touch the sun
TTITLE3=the right to walk away
TTITLE4=a couple more years
TTITLE5=shine son
TTITLE6=a little bit more
TTITLE7=everybody loves me
TTITLE8=carry me carrie
TTITLE9=the cover of the rolling stone
TTITLE10=sylvia's mother
TTITLE11=years from now
EXTD=
EXTT0=
EXTT1=
EXTT2=
EXTT3=
EXTT4=
EXTT5=
EXTT6=
EXTT7=
EXTT8=
EXTT9=
EXTT10=
EXTT11=
PLAYORDER=
